<?xml version="1.0" encoding="UTF-8" standalone="no"?>
<!DOCTYPE svg PUBLIC "-//W3C//DTD SVG 1.1//EN" "http://www.w3.org/Graphics/SVG/1.1/DTD/svg11.dtd">
<svg width="100%" height="100%" viewBox="0 0 500 500" version="1.1" xmlns="http://www.w3.org/2000/svg" xmlns:xlink="http://www.w3.org/1999/xlink" xml:space="preserve" xmlns:serif="http://www.serif.com/" style="fill-rule:evenodd;clip-rule:evenodd;stroke-linejoin:round;stroke-miterlimit:2;">
    <rect id="Artboard1" x="0" y="0" width="500" height="500" style="fill:none;"/>
    <g id="Artboard11" serif:id="Artboard1">
        <g transform="matrix(0.618487,0,0,0.618487,95.3783,43.6303)">
            <g transform="matrix(1,0,0,1,-13.482,-554.233)">
                <path d="M392.893,759.426L270.613,688.819L331.286,623.91L453.566,694.503L392.893,759.426ZM389.27,912.913L267.974,982.932L267.974,842.871L364.028,787.421L389.27,772.84L389.27,912.913ZM266.056,833.641L266.043,820.317L347.746,773.186L347.746,786.473L266.056,833.641ZM263.495,835.126L263.482,835.114L263.508,835.114L263.495,835.126ZM260.935,833.641L255.866,830.724L255.866,815.569L342.472,766.184L341.282,765.391L254.586,814.826L254.586,829.981L250.568,827.663L250.568,813.199L337.161,763.804L335.923,763.049L249.607,812.279L249.288,812.458L249.288,826.923L244.257,824.017L244.257,810.704L329.788,761.922C338.594,757.416 344.764,758.915 346.979,762.382C347.503,763.202 347.746,764.047 347.746,764.879C347.746,766.133 347.171,767.324 346.057,768.246L260.922,817.36L260.935,833.63L260.935,833.641ZM259.015,982.932L137.72,912.913L137.72,772.84L259.016,842.871L259.016,982.932L259.015,982.932ZM73.4,694.503L195.693,623.91L256.366,688.819L134.073,759.426L73.4,694.503ZM191.417,777.538L273.121,730.42L273.121,746.075L273.339,746.075L202.157,786.678L202.157,799.708L191.417,793.512L191.417,777.538ZM266.798,722.573L180.345,771.868L180.026,772.06L180.026,786.921L175.993,784.605L175.993,770.435L262.6,721.039L261.396,720.244L175.034,769.5L174.713,769.679L174.713,783.862L169.618,780.917L169.618,767.925L255.149,719.143C263.956,714.651 270.139,716.136 272.354,719.617C272.878,720.423 273.121,721.281 273.121,722.114C273.121,723.355 272.546,724.558 271.432,725.48L186.297,774.581L186.297,790.543L181.305,787.675L181.305,772.803L267.899,723.405L266.798,722.573ZM309.077,747.201L223.943,796.304L223.956,812.279L223.956,812.29L218.873,809.36L218.873,794.55L305.467,745.167L304.174,744.424L217.914,793.628L217.594,793.807L217.594,808.617L213.562,806.301L213.562,792.182L300.168,742.786L298.927,742.017L212.602,791.247L212.282,791.439L212.282,805.558L207.278,802.666L207.278,789.647L292.809,740.865C301.614,736.36 307.797,737.857 310.012,741.339C310.497,742.095 310.741,742.901 310.766,743.67C310.779,743.81 310.779,743.937 310.766,744.066C310.702,745.23 310.126,746.344 309.077,747.201ZM229.062,799.26L310.766,752.13L310.766,766.876L239.136,807.721L239.136,821.059L229.075,815.247L229.075,815.235L229.062,799.26ZM263.495,695.054L384.79,765.083L352.867,783.515L352.867,764.571L352.854,764.571C352.803,762.894 352.316,761.205 351.305,759.63C347.836,754.203 339.132,751.4 327.343,757.416L315.887,763.944L315.887,743.528L315.874,743.528C315.823,741.864 315.336,740.162 314.325,738.587C310.87,733.147 302.153,730.344 290.376,736.36L278.242,743.284L278.242,721.806C278.19,720.13 277.678,718.439 276.667,716.866C273.211,711.439 264.494,708.621 252.718,714.638L164.498,764.956L164.498,777.961L142.2,765.083L263.495,695.054ZM329.595,612.595L263.482,683.329L197.369,612.595L59.153,692.391L126.11,764.021L128.76,766.85L128.76,918.084L259.016,993.285L263.495,995.872L267.974,993.285L398.232,918.084L398.232,766.837L400.867,764.021L467.811,692.391L329.595,612.595Z" style="fill:rgb(239,177,130);fill-rule:nonzero;"/>
            </g>
            <g transform="matrix(1,0,0,1,-9.06401,-551.789)">
                <path d="M208.097,887.066C212.281,890.689 215.539,894.712 217.871,899.134C220.203,903.556 221.369,908.03 221.369,912.557C221.369,918.936 219.243,922.608 214.99,923.575C210.738,924.541 204.736,922.748 196.986,918.195L166.531,900.309L166.531,827.054L195.957,844.337C203.433,848.728 209.246,853.805 213.396,859.569C217.545,865.333 219.62,871.267 219.62,877.372C219.62,881.282 218.609,884.065 216.585,885.723C214.562,887.382 211.732,887.829 208.097,887.066ZM174.865,864.461L194.619,876.063C200.106,879.286 204.256,880.626 207.068,880.082C209.881,879.539 211.287,877.141 211.287,872.889C211.287,864.521 205.731,857.074 194.619,850.547L174.865,838.945L174.865,864.461ZM196.265,910.776C202.027,914.16 206.262,915.567 208.972,914.998C211.681,914.429 213.036,911.915 213.036,907.457C213.036,898.471 207.446,890.695 196.265,884.129L174.865,871.56L174.865,898.207L196.265,910.776Z" style="fill:rgb(239,177,130);fill-rule:nonzero;"/>
            </g>
            <g transform="matrix(1,0,0,1,-19.53,-552.025)">
                <path d="M348.817,861.088C353.001,859.682 356.259,859.788 358.591,861.406C360.923,863.025 362.089,866.097 362.089,870.624C362.089,877.003 359.963,883.232 355.71,889.31C351.458,895.389 345.456,900.811 337.705,905.576L307.251,924.3L307.251,851.046L336.677,832.954C344.153,828.358 349.966,826.447 354.116,827.222C358.265,827.997 360.34,831.437 360.34,837.542C360.34,841.451 359.329,845.452 357.305,849.542C355.282,853.633 352.452,857.481 348.817,861.088ZM315.585,878.434L335.339,866.288C340.826,862.915 344.976,859.266 347.788,855.342C350.6,851.418 352.007,847.33 352.007,843.077C352.007,834.709 346.451,833.941 335.339,840.773L315.585,852.918L315.585,878.434ZM336.985,899.023C342.747,895.48 346.982,891.796 349.692,887.97C352.401,884.143 353.756,880.001 353.756,875.542C353.756,866.557 348.166,865.501 336.985,872.375L315.585,885.533L315.585,912.18L336.985,899.023Z" style="fill:rgb(239,177,130);fill-rule:nonzero;"/>
            </g>
        </g>
        <g transform="matrix(0.56736,0,0,0.56736,-364.364,-29.7599)">
            <path d="M773.671,723.208C781.303,725.335 787.246,729.182 791.5,734.749C795.753,740.317 797.88,747.229 797.88,755.486C797.88,767.121 794.002,776.098 786.245,782.416C778.488,788.734 767.541,791.893 753.404,791.893L697.855,791.893L697.855,658.276L751.527,658.276C765.164,658.276 775.767,661.31 783.336,667.378C790.905,673.446 794.69,682.047 794.69,693.182C794.69,700.313 792.844,706.475 789.154,711.667C785.463,716.859 780.302,720.706 773.671,723.208ZM713.056,717.578L749.088,717.578C759.096,717.578 766.665,715.576 771.795,711.573C776.924,707.569 779.489,701.689 779.489,693.933C779.489,678.669 769.355,671.038 749.088,671.038L713.056,671.038L713.056,717.578ZM752.09,779.132C762.599,779.132 770.325,777.161 775.267,773.22C780.208,769.28 782.679,763.243 782.679,755.111C782.679,738.722 772.483,730.527 752.09,730.527L713.056,730.527L713.056,779.132L752.09,779.132Z" style="fill:white;fill-rule:nonzero;"/>
        </g>
        <g transform="matrix(0.56736,0,0,0.56736,-364.364,-29.7599)">
            <path d="M850.801,793.207C841.919,793.207 834.099,791.205 827.343,787.201C820.587,783.198 815.364,777.505 811.673,770.124C807.983,762.743 806.137,754.11 806.137,744.226C806.137,734.343 807.983,725.71 811.673,718.329C815.364,710.947 820.587,705.255 827.343,701.251C834.099,697.248 841.919,695.246 850.801,695.246C859.684,695.246 867.503,697.248 874.259,701.251C881.015,705.255 886.238,710.947 889.929,718.329C893.62,725.71 895.465,734.343 895.465,744.226C895.465,754.11 893.62,762.743 889.929,770.124C886.238,777.505 881.015,783.198 874.259,787.201C867.503,791.205 859.684,793.207 850.801,793.207ZM850.801,780.633C860.184,780.633 867.378,777.537 872.383,771.344C877.387,765.151 879.889,756.112 879.889,744.226C879.889,732.716 877.324,723.802 872.195,717.484C867.065,711.166 859.934,708.007 850.801,708.007C841.543,708.007 834.349,711.166 829.22,717.484C824.09,723.802 821.526,732.716 821.526,744.226C821.526,756.112 824.059,765.151 829.126,771.344C834.193,777.537 841.418,780.633 850.801,780.633Z" style="fill:white;fill-rule:nonzero;"/>
        </g>
        <g transform="matrix(0.56736,0,0,0.56736,-364.364,-29.7599)">
            <path d="M948.199,793.207C939.316,793.207 931.497,791.205 924.741,787.201C917.985,783.198 912.762,777.505 909.071,770.124C905.38,762.743 903.535,754.11 903.535,744.226C903.535,734.343 905.38,725.71 909.071,718.329C912.762,710.947 917.985,705.255 924.741,701.251C931.497,697.248 939.316,695.246 948.199,695.246C957.081,695.246 964.901,697.248 971.657,701.251C978.413,705.255 983.636,710.947 987.327,718.329C991.017,725.71 992.863,734.343 992.863,744.226C992.863,754.11 991.017,762.743 987.327,770.124C983.636,777.505 978.413,783.198 971.657,787.201C964.901,791.205 957.081,793.207 948.199,793.207ZM948.199,780.633C957.582,780.633 964.776,777.537 969.78,771.344C974.784,765.151 977.287,756.112 977.287,744.226C977.287,732.716 974.722,723.802 969.592,717.484C964.463,711.166 957.332,708.007 948.199,708.007C938.941,708.007 931.747,711.166 926.617,717.484C921.488,723.802 918.923,732.716 918.923,744.226C918.923,756.112 921.457,765.151 926.524,771.344C931.591,777.537 938.816,780.633 948.199,780.633Z" style="fill:white;fill-rule:nonzero;"/>
        </g>
        <g transform="matrix(0.56736,0,0,0.56736,-364.364,-29.7599)">
            <path d="M1084.63,791.893L1064.74,791.893L1016.32,746.478L1016.32,791.893L1001.12,791.893L1001.12,653.773L1016.32,653.773L1016.32,740.848L1060.8,697.686L1080.13,697.686L1032.84,742.913L1084.63,791.893Z" style="fill:white;fill-rule:nonzero;"/>
        </g>
        <g transform="matrix(0.56736,0,0,0.56736,-364.364,-29.7599)">
            <path d="M1111.65,779.883L1172.64,779.883L1172.64,791.893L1092.89,791.893L1092.89,781.384L1152.38,709.509L1094.95,709.509L1094.95,697.498L1170.58,697.498L1170.58,708.57L1111.65,779.883Z" style="fill:white;fill-rule:nonzero;"/>
        </g>
        <g transform="matrix(0.56736,0,0,0.56736,-364.364,-29.7599)">
            <path d="M1256.72,723.208C1264.35,725.335 1270.29,729.182 1274.55,734.749C1278.8,740.317 1280.93,747.229 1280.93,755.486C1280.93,767.121 1277.05,776.098 1269.29,782.416C1261.54,788.734 1250.59,791.893 1236.45,791.893L1180.9,791.893L1180.9,658.276L1234.57,658.276C1248.21,658.276 1258.81,661.31 1266.38,667.378C1273.95,673.446 1277.74,682.047 1277.74,693.182C1277.74,700.313 1275.89,706.475 1272.2,711.667C1268.51,716.859 1263.35,720.706 1256.72,723.208ZM1196.1,717.578L1232.13,717.578C1242.14,717.578 1249.71,715.576 1254.84,711.573C1259.97,707.569 1262.54,701.689 1262.54,693.933C1262.54,678.669 1252.4,671.038 1232.13,671.038L1196.1,671.038L1196.1,717.578ZM1235.14,779.132C1245.65,779.132 1253.37,777.161 1258.31,773.22C1263.26,769.28 1265.73,763.243 1265.73,755.111C1265.73,738.722 1255.53,730.527 1235.14,730.527L1196.1,730.527L1196.1,779.132L1235.14,779.132Z" style="fill:white;fill-rule:nonzero;"/>
        </g>
        <g transform="matrix(0.56736,0,0,0.56736,-364.364,-29.7599)">
            <path d="M1333.85,793.207C1324.96,793.207 1317.15,791.205 1310.39,787.201C1303.63,783.198 1298.41,777.505 1294.72,770.124C1291.03,762.743 1289.18,754.11 1289.18,744.226C1289.18,734.343 1291.03,725.71 1294.72,718.329C1298.41,710.947 1303.63,705.255 1310.39,701.251C1317.15,697.248 1324.96,695.246 1333.85,695.246C1342.73,695.246 1350.55,697.248 1357.31,701.251C1364.06,705.255 1369.29,710.947 1372.98,718.329C1376.67,725.71 1378.51,734.343 1378.51,744.226C1378.51,754.11 1376.67,762.743 1372.98,770.124C1369.29,777.505 1364.06,783.198 1357.31,787.201C1350.55,791.205 1342.73,793.207 1333.85,793.207ZM1333.85,780.633C1343.23,780.633 1350.42,777.537 1355.43,771.344C1360.43,765.151 1362.94,756.112 1362.94,744.226C1362.94,732.716 1360.37,723.802 1355.24,717.484C1350.11,711.166 1342.98,708.007 1333.85,708.007C1324.59,708.007 1317.4,711.166 1312.27,717.484C1307.14,723.802 1304.57,732.716 1304.57,744.226C1304.57,756.112 1307.11,765.151 1312.17,771.344C1317.24,777.537 1324.46,780.633 1333.85,780.633Z" style="fill:white;fill-rule:nonzero;"/>
        </g>
        <g transform="matrix(0.56736,0,0,0.56736,-364.364,-29.7599)">
            <path d="M1428.99,743.288L1467.84,791.893L1449.64,791.893L1419.8,754.736L1390.34,791.893L1371.76,791.893L1410.98,743.288L1374.01,697.498L1392.4,697.498L1419.8,732.216L1447.2,697.498L1465.78,697.498C1465.78,697.498 1428.99,743.288 1428.99,743.288L1428.99,743.288Z" style="fill:white;fill-rule:nonzero;"/>
        </g>
    </g>
</svg>
